<svg xmlns="http://www.w3.org/2000/svg" xml:space="preserve" fill-rule="evenodd" stroke-linejoin="round" stroke-miterlimit="2" clip-rule="evenodd" viewBox="0 0 4617 1008">
    <title>Artists for the Humanities</title>
    <path fill="#013049" d="M0 0h1008v1008H0z"/>
    <path fill="#fcaf16" d="M730 329V204L623 329h107Zm0 90H512l-20-85L725 64h126v265h57v90h-57v85H730v-85Z"/>
    <path fill="#fff" d="m375 332-48-125-50 125h98ZM269 64h117l186 440H442l-32-78H242l-32 78H83L269 64ZM216 610H84V504h384v106H337v332H216V610Z"/>
    <path fill="#fff" d="M453 504h121v164h156V504h121v438H730V775H574v167H453V504Z"/>
    <path fill="#fff" d="m1433 334-50-128-51 128h101ZM1323 57h121l192 456h-134l-33-81h-174l-32 81h-132l192-456ZM1872 277c43 0 67-20 67-53v-1c0-36-25-54-67-54h-82v108h82ZM1664 60h214c69 0 117 19 147 50 27 25 40 60 40 105v1c0 69-37 115-93 139l108 158h-145l-91-137h-54v137h-126V60ZM2223 170h-136V60h397v110h-136v343h-125V170ZM2525 63h125v454h-125zM2683 445l70-83c45 36 94 54 147 54 33 0 51-11 51-31v-1c0-19-14-29-76-43-96-22-170-49-170-142v-2c0-84 66-144 175-144 77 0 137 20 186 60l-63 88c-41-29-87-44-127-44-30 0-45 13-45 29v1c0 21 16 30 78 44 104 23 169 56 169 141v1c0 92-73 147-183 147-80 0-156-25-212-75ZM3233 170h-136V60h397v110h-136v343h-125V170ZM3498 445l70-83c45 36 94 54 147 54 33 0 51-11 51-31v-1c0-19-14-29-76-43-96-22-170-49-170-142v-2c0-84 66-144 175-144 77 0 137 20 186 60l-63 88c-41-29-86-44-127-44-30 0-45 13-45 29v1c0 21 16 30 78 44 104 23 169 56 169 141v1c0 92-73 147-183 147-80 0-156-25-212-75Z"/>
    <path fill="#fcaf16" d="M3951 54h179v55h-117v38h105v51h-105v80h-62V54ZM4314 167v-1c0-32-23-60-57-60s-57 27-57 60c0 32 24 61 57 61 35 0 57-28 57-60Zm-177 0v-1c0-64 51-116 120-116s120 51 120 116c0 64-51 116-120 116s-120-51-120-115ZM4499 162c21 0 33-10 33-27 0-18-12-27-33-27h-41v54h41ZM4396 54h106c34 0 58 9 73 25 13 12 20 30 20 52 0 35-19 57-46 69l53 78h-72l-45-68h-27v68h-62V54Z"/>
    <path fill="#fff" d="M4018 348h-67v-54h196v54h-67v169h-62V348ZM4182 294h62v84h80v-84h61v223h-61v-85h-80v85h-62V294ZM4422 294h180v53h-118v33h107v49h-107v36h120v52h-182V294ZM1135 538h115v156h148V538h116v417h-116V797h-148v158h-115V538ZM1538 772V538h117v232c0 60 31 89 77 89 47 0 77-28 77-86V538h117v231c0 135-77 194-195 194-119 0-193-60-193-191ZM1950 538h122l100 162 99-162h122v417h-115V716l-106 163h-3l-106-162v238h-113V538Z"/>
    <path fill="#fff" d="m2668 791-46-119-48 119h94Zm-101-256h111l178 420h-124l-31-74h-160l-30 74h-122l178-420Z"/>
    <path fill="#fff" d="M2851 538h108l172 221V538h114v417h-101l-178-229v229h-115V538ZM3267 538h116v416h-116zM3526 639h-125V538h366v101h-125v316h-116V639ZM3783 538h117v416h-117zM3919 538h335v98h-221v64h201v91h-201v66h224v98h-338V538Z"/>
    <path fill="#fff" d="m4253 893 64-77c41 33 87 50 135 50 31 0 48-10 48-28v-1c0-18-14-27-70-40-89-21-158-46-158-131v-2c0-77 62-133 162-133 71 0 126 19 171 55l-57 82c-39-27-80-41-117-41-28 0-42 12-42 27v1c0 19 14 27 72 40 96 21 156 52 156 130v1c0 86-68 136-169 136-74 0-144-23-195-69Z"/>
</svg>